<?xml version="1.0" encoding="UTF-8"?>
<svg version="1.1" xmlns="http://www.w3.org/2000/svg" width="649" height="594">
<path d="M0 0 C1.12535156 0.00580078 1.12535156 0.00580078 2.2734375 0.01171875 C3.02367187 0.00785156 3.77390625 0.00398437 4.546875 0 C10.14682697 0.01010822 10.14682697 0.01010822 11.2734375 1.13671875 C11.37167687 2.80100926 11.40317381 4.46953806 11.3984375 6.13671875 C11.40230469 7.49796875 11.40230469 7.49796875 11.40625 8.88671875 C11.2734375 11.13671875 11.2734375 11.13671875 10.2734375 12.13671875 C7.96350368 12.26229037 5.64925214 12.31247604 3.3359375 12.32421875 C2.06878906 12.33839844 0.80164063 12.35257813 -0.50390625 12.3671875 C-3.7265625 12.13671875 -3.7265625 12.13671875 -5.7265625 10.13671875 C-6.17578125 8.0078125 -6.17578125 8.0078125 -6.4140625 5.57421875 C-6.50042969 4.76855469 -6.58679688 3.96289062 -6.67578125 3.1328125 C-6.69253906 2.47410156 -6.70929688 1.81539062 -6.7265625 1.13671875 C-4.90540247 -0.68444128 -2.41984486 0.00436795 0 0 Z M3.2734375 2.13671875 C3.6034375 3.12671875 3.9334375 4.11671875 4.2734375 5.13671875 C4.9334375 5.13671875 5.5934375 5.13671875 6.2734375 5.13671875 C5.9434375 4.14671875 5.6134375 3.15671875 5.2734375 2.13671875 C4.6134375 2.13671875 3.9534375 2.13671875 3.2734375 2.13671875 Z " fill="#000000" transform="translate(406.7265625,11.86328125)"/>
<path d="M0 0 C5.36282357 1.09074378 9.12503734 1.9155799 13 6 C17.58890606 12.94185789 20.01626089 19.55501512 19 28 C17.12233976 35.36042814 14.10862256 41.38771043 9 47 C8.20722656 47.87398437 8.20722656 47.87398437 7.3984375 48.765625 C2.07838362 53.96849708 -4.35701319 56.94478493 -11 60.10546875 C-11.98456177 60.58173706 -11.98456177 60.58173706 -12.98901367 61.06762695 C-14.33934234 61.6936929 -15.71100911 62.27548812 -17.09887695 62.81323242 C-23.24254654 65.37628442 -25.35712149 69.0742367 -28.1875 74.9375 C-30.93550734 80.43795412 -33.32322813 84.85051124 -38 89 C-38.52722656 89.53625 -39.05445313 90.0725 -39.59765625 90.625 C-45.4128034 96.08348479 -52.6886471 98.71852688 -60.24609375 100.96484375 C-64.02722589 102.38612037 -64.88233957 104.6249787 -67 108 C-69.42647319 110.36361119 -71.95529008 112.47764504 -75 114 C-74.51066156 116.77291781 -73.89766472 119.28292695 -72.9375 121.9375 C-71.68718445 126.02186413 -71.31540998 129.3056397 -72.9375 133.3203125 C-74.05617366 136.14167327 -74.6426794 138.84207939 -75.25 141.8125 C-76.68297408 147.69637842 -78.87573501 151.61067942 -83 156 C-84.0828125 157.175625 -84.0828125 157.175625 -85.1875 158.375 C-93.43634386 163.14099867 -102.88704474 162.07211238 -112 161 C-111.84660156 161.58007812 -111.69320313 162.16015625 -111.53515625 162.7578125 C-111.02685585 165.30351532 -110.76753682 167.40909217 -111 170 C-114.37364312 175.04460115 -119.26071712 176.72072722 -125 178 C-128.23445418 178.2931774 -131.44113088 178.33377655 -134.6875 178.3125 C-135.57308594 178.30758545 -136.45867187 178.3026709 -137.37109375 178.29760742 C-144.27072316 178.17466995 -150.47009426 177.32674802 -157 175 C-157.9796875 174.6596875 -158.959375 174.319375 -159.96875 173.96875 C-167.75174132 170.99998011 -174.24076838 166.82973465 -181 162 C-180.6390625 162.96421875 -180.278125 163.9284375 -179.90625 164.921875 C-179.43716262 166.19779268 -178.96843127 167.47384129 -178.5 168.75 C-178.26152344 169.38421875 -178.02304688 170.0184375 -177.77734375 170.671875 C-176.55198242 174.03286607 -176 176.36871587 -176 180 C-175.50371094 179.69964844 -175.00742188 179.39929688 -174.49609375 179.08984375 C-170.85158503 177.04974873 -168.56718938 176 -164.3125 176 C-158.40808164 177.78246592 -155.25080646 181.65201765 -151.75 186.5625 C-151.06421875 187.51253906 -150.3784375 188.46257812 -149.671875 189.44140625 C-146.86728539 193.73347679 -146.08759562 197.97332774 -147 203 C-149.4006304 208.06715342 -152.60588752 212.55605694 -156 217 C-154.700625 217.3403125 -154.700625 217.3403125 -153.375 217.6875 C-146.74605671 220.26542239 -143.65539251 223.85708122 -140.76171875 230.1328125 C-139.0541967 234.31843064 -138.83512796 237.67548458 -138.8125 242.1875 C-138.80750488 242.86659424 -138.80250977 243.54568848 -138.79736328 244.24536133 C-138.81720912 247.84306682 -139.0752231 250.83506995 -140.375 254.1875 C-141.37181357 260.26806278 -138.26171151 264.95403542 -135 270 C-134.34 270.33 -133.68 270.66 -133 271 C-132.690625 269.7625 -132.690625 269.7625 -132.375 268.5 C-129.51772764 261.22694309 -124.08504132 254.54252066 -117 251 C-116.62118157 248.05062792 -116.34628685 245.14920992 -116.125 242.1875 C-114.62917408 225.94969709 -109.24428999 213.26759745 -97.26171875 201.875 C-92.99242609 198.33569002 -88.89905041 196.37602879 -83.46875 195.30078125 C-79.8109004 194.31337209 -79.8109004 194.31337209 -78.1015625 191.1640625 C-77.61429687 189.99617187 -77.12703125 188.82828125 -76.625 187.625 C-68.77494173 170.13471757 -55.78646548 157.35286291 -38.1171875 150.02734375 C-35.0804507 148.55379803 -32.6028086 146.51993605 -29.953125 144.44921875 C-19.68213489 136.82814409 -7.42640035 135.52608118 5 135 C5.38671875 133.91332031 5.38671875 133.91332031 5.78125 132.8046875 C9.88613336 123.35819311 18.13967742 116.10823677 27.4140625 111.90625 C29.25217556 111.20477929 31.12338292 110.59078686 33 110 C32.85691406 109.07380859 32.85691406 109.07380859 32.7109375 108.12890625 C31.71040287 100.48528703 32.26782973 94.5975844 35.625 87.625 C38.68437461 84.24358595 41.54143267 82.85413167 46 82 C49.5 82.3125 49.5 82.3125 52 83 C53.28571429 90.42857143 53.28571429 90.42857143 52 94 C51.67 93.34 51.34 92.68 51 92 C48.98330173 90.86649466 48.98330173 90.86649466 47 90 C47 89.34 47 88.68 47 88 C45.02 88.33 43.04 88.66 41 89 C41.58929011 92.03063487 42.25044562 95.0017825 43 98 C45.97 97.01 48.94 96.02 52 95 C54.35333796 99.70667591 54.17102038 101.8693886 54 107 C52.73285156 107.31453125 51.46570313 107.6290625 50.16015625 107.953125 C37.76157709 111.06523557 37.76157709 111.06523557 26 116 C26.33 116.33 26.66 116.66 27 117 C27.2632246 120.94836905 27.08997373 123.60379269 25 127 C25.97066406 126.75830078 25.97066406 126.75830078 26.9609375 126.51171875 C30.87121473 125.85330446 34.66634131 125.80919837 38.625 125.8125 C39.42099609 125.81185547 40.21699219 125.81121094 41.03710938 125.81054688 C47.20791602 125.86559868 52.97670285 126.66148952 59 128 C59.66 128 60.32 128 61 128 C61.66 125.69 62.32 123.38 63 121 C70.31839056 119.54198409 77.55769906 118.54701632 85 118 C85 117.01 85 116.02 85 115 C86.98 115.66 88.96 116.32 91 117 C91 117.66 91 118.32 91 119 C91.74378906 119.2475 92.48757813 119.495 93.25390625 119.75 C101.8254745 123.65170959 107.73458415 134.55721177 111.22265625 142.9375 C113.88928353 150.1249685 115.20008329 156.11274321 115.25 163.75 C115.2809375 164.91015625 115.2809375 164.91015625 115.3125 166.09375 C115.35782329 172.84691957 114.11834511 178.33693758 109.8125 183.75 C104.98138722 187.61489023 100.34766605 189.85436195 94.25 190.9375 C90.71294273 191.60337089 90.10876366 191.88858356 87.4375 194.625 C86.7259375 195.800625 86.7259375 195.800625 86 197 C86.53109375 197.31710938 87.0621875 197.63421875 87.609375 197.9609375 C92.57905323 201.24382713 95.48574592 204.31110319 97.47265625 209.96484375 C98.24059544 214.38476042 97.73757079 218.609252 97.28613281 223.03344727 C96.79869165 228.61333118 97.77221026 232.3791579 99.94140625 237.453125 C106.01924681 252.07582628 103.81554029 269.42439146 99 284 C99.75925781 284.21914063 100.51851562 284.43828125 101.30078125 284.6640625 C109.46756814 287.26980773 109.46756814 287.26980773 112.1875 291 C113 294 113 294 113 298 C113.67804688 297.66226562 114.35609375 297.32453125 115.0546875 296.9765625 C126.59380941 291.44673399 135.56567921 290.19225014 148 293 C148.20496094 292.38511719 148.40992188 291.77023437 148.62109375 291.13671875 C149.74739583 287.7578125 150.87369792 284.37890625 152 281 C152.7556547 275.95085266 152.52498053 272.16185556 149.5859375 267.89453125 C148.53168307 266.52137482 147.46058192 265.16102619 146.375 263.8125 C135.8592406 249.78995008 129.21035899 232.77610456 130 215 C130.80339458 209.5981279 132.19915537 205.23113119 136.3125 201.5 C142.60275545 196.8609366 148.43150373 196.73076495 156 197 C156 197.33 156 197.66 156 198 C154.69675781 198.14695313 154.69675781 198.14695313 153.3671875 198.296875 C144.41738937 199.34859834 144.41738937 199.34859834 137 204 C137 204.66 137 205.32 137 206 C137.53367187 205.65066406 138.06734375 205.30132812 138.6171875 204.94140625 C144.4604172 201.37279019 149.18919352 200.13442381 156 200 C156.721875 199.98453125 157.44375 199.9690625 158.1875 199.953125 C159.7916906 199.94018798 161.39613618 199.9651334 163 200 C163 199.67 163 199.34 163 199 C163.67546875 198.98582031 164.3509375 198.97164062 165.046875 198.95703125 C165.93890625 198.90933594 166.8309375 198.86164063 167.75 198.8125 C168.63171875 198.77769531 169.5134375 198.74289063 170.421875 198.70703125 C174.05327213 197.7111481 175.07406052 196.19105999 177 193 C180.40810332 178.04531712 176.54833785 161.49796661 170 148 C168.91485286 145.64666885 167.8315336 143.29249403 166.75 140.9375 C166.24984375 139.87402344 165.7496875 138.81054688 165.234375 137.71484375 C162.70105093 132.14313418 162.46438735 127.10740357 163.4921875 121.14453125 C164.53351113 114.69633493 164.8654845 107.9210102 163 101.625 C159.24832778 96.70093021 154.22645434 91.36678266 148 90 C139.92429585 88.98246128 133.20285774 91.10009498 126.54296875 95.6953125 C120.82352957 100.38088954 117.87141463 105.2764411 115 112 C110.08468718 122.96612513 110.08468718 122.96612513 105 125 C105.28230469 124.44441406 105.56460937 123.88882813 105.85546875 123.31640625 C107.53178926 119.92371661 109.07266827 116.47389012 110.6171875 113.01953125 C111.54250968 110.99898309 112.50669234 108.99580404 113.5078125 107.01171875 C114.21550781 105.58279297 114.21550781 105.58279297 114.9375 104.125 C115.37964844 103.26132813 115.82179688 102.39765625 116.27734375 101.5078125 C117.20661961 98.28297412 116.54465179 96.91546817 115 94 C114.54625 93.401875 114.0925 92.80375 113.625 92.1875 C111.66560882 89.54985803 110.35872414 86.77158151 108.96484375 83.8046875 C108.01891485 81.82545172 108.01891485 81.82545172 106 80 C102.41656024 79.83322718 102.41656024 79.83322718 99 80 C96.9618325 84.16897898 95.79791705 87.7745767 95.125 92.375 C94.0063429 99.1521976 91.16396744 104.13797855 87.0625 109.5625 C84.29201255 111.4934458 82.2982413 111.29984012 79 111 C79.7425 110.443125 80.485 109.88625 81.25 109.3125 C85.97204864 105.34168637 88.39117685 101.75257059 90.0625 95.8125 C90.3925 94.67683594 90.7225 93.54117188 91.0625 92.37109375 C91.64955391 90.26014574 92.23340365 88.14830111 92.8125 86.03515625 C93.18375 84.71837891 93.18375 84.71837891 93.5625 83.375 C93.77003906 82.59898438 93.97757813 81.82296875 94.19140625 81.0234375 C95.12591632 78.68490505 95.99820265 77.52382682 98 76 C102.57026609 75.41028825 104.78250101 75.13884218 108.5625 77.8125 C111.62729793 81.38464624 113.9039775 85.61241378 116.25390625 89.671875 C117.78649761 92.06870748 117.78649761 92.06870748 119.9375 92.99609375 C122.80315961 93.00152114 124.09763715 91.9421178 126.4375 90.3125 C133.59838027 85.80926602 141.68392784 82.07607516 150.3125 83.375 C155.3819554 84.75982684 159.15654816 87.49222081 163 91 C163.65009033 91.59119629 164.30018066 92.18239258 164.9699707 92.79150391 C169.84672621 98.09699161 171.29272087 105.04789707 171.07421875 112.09375 C170.95109741 114.22950801 170.82200278 116.36492853 170.6875 118.5 C170.34496102 129.51574222 172.22202215 136.59127408 177.46875 146.125 C180.52140129 151.71528472 182.51164548 157.58905529 184.5 163.625 C184.83773437 164.62096191 185.17546875 165.61692383 185.5234375 166.64306641 C188.89490023 176.97165394 190.60126629 187.0257675 185.9609375 197.30078125 C182.85024606 202.62909466 178.98476232 207.00507923 173 209 C166.92967214 209.45474581 161.22090928 208.92945993 155.25 207.8125 C149.68611792 206.87305737 146.75812025 206.93365584 142 210 C137.7219541 216.41706885 138.7689197 223.67624839 140 231 C142.7683533 240.73696679 147.51722545 248.64534098 153.08447266 257.00366211 C159.41943751 266.55005643 162.21235188 273.41948224 160 285 C159.26545099 287.62756588 158.46752778 290.18665634 157.5234375 292.74609375 C156.87027652 295.55858542 157.11120431 297.25881329 158 300 C159.43822597 301.83754264 159.43822597 301.83754264 161.25 303.5 C173.56941659 317.17706658 176.21244601 342.8730625 175.41015625 360.5703125 C174.49344675 372.52583862 169.97064547 382.95630207 160.796875 390.91015625 C153.62239052 396.0150779 145.76284542 398.45644004 137 399 C135.87851563 399.07927734 135.87851563 399.07927734 134.734375 399.16015625 C121.29322049 399.65877972 108.5380168 395.42185667 98.625 386.25 C94.6601071 382.04036063 92.25313252 377.28619552 90 372 C89.54109375 372.39832031 89.0821875 372.79664063 88.609375 373.20703125 C85.47728415 375.91142062 82.36122541 378.57991771 79 381 C79.55554942 384.93364832 81.40318865 386.76226358 84.125 389.5625 C89.39833997 395.24018553 94.52142204 401.56426612 97 409 C98.23234375 408.96519531 99.4646875 408.93039062 100.734375 408.89453125 C116.07216934 408.58563326 127.85784222 409.66238839 139.625 420.49609375 C140.76998055 421.64448198 141.88752146 422.82009852 143 424 C146.61372637 426.40915091 147.41457675 426.01314204 151.5625 425.375 C157.91774036 424.76937396 162.65624569 425.35038702 168 429 C170.26658897 431.47372891 172.21970871 433.98933551 174.11328125 436.7578125 C176.23957365 439.28471071 177.87900889 440.04382716 181 441 C181.185625 440.29875 181.37125 439.5975 181.5625 438.875 C184.00647454 433.98705091 187.95051178 431.00197202 192.8125 428.625 C198.63544449 427.48324618 204.44358923 426.82169122 209.875 429.625 C213.27939921 432.2123434 215.1182386 434.16120675 217 438 C217.62033885 443.68643944 217.12087149 449.30518133 213.484375 453.92578125 C209.05297 458.5787565 205.79081796 460.716188 199.3125 461.375 C194.23525542 461.24903783 189.37164572 459.54799624 185 457 C184.67 456.01 184.34 455.02 184 454 C183.34 454 182.68 454 182 454 C181.75765625 453.44570313 181.5153125 452.89140625 181.265625 452.3203125 C180.93046875 451.59585937 180.5953125 450.87140625 180.25 450.125 C179.92515625 449.40570313 179.6003125 448.68640625 179.265625 447.9453125 C177.70353544 445.54432299 176.7058876 444.91764884 174 444 C171.94172246 443.83192111 169.87709693 443.7343666 167.8125 443.6875 C161.41030594 443.29861532 157.21622846 441.62426263 152 438 C148.47656233 435.65104155 147.14825002 435.6326273 143 436 C141.03832342 436.77471007 139.10205562 437.61522462 137.1875 438.5 C130.12473019 441.15421007 123.57868123 441.52761454 116.0625 441.5625 C114.98444092 441.57667969 113.90638184 441.59085937 112.7956543 441.60546875 C106.32434626 441.52484823 102.24479674 440.86680725 97 437 C93.05150883 432.68420732 91.70686315 429.2070281 90.25 423.5625 C88.52298718 417.3164703 85.94949887 414.34583222 80.828125 410.48828125 C80.22484375 409.99714844 79.6215625 409.50601562 79 409 C79 408.34 79 407.68 79 407 C78.34 407 77.68 407 77 407 C75.48015117 405.32464541 74.03293547 403.58294378 72.625 401.8125 C71.85414063 400.84957031 71.08328125 399.88664062 70.2890625 398.89453125 C69.53367187 397.93933594 68.77828125 396.98414063 68 396 C67.24460937 395.09636719 66.48921875 394.19273437 65.7109375 393.26171875 C64 391 64 391 64 389 C63.401875 388.71125 62.80375 388.4225 62.1875 388.125 C60 387 60 387 57 385 C54.19390866 384.53975918 54.19390866 384.53975918 51.01953125 384.3671875 C49.85615234 384.28339844 48.69277344 384.19960938 47.49414062 384.11328125 C46.27919922 384.03464844 45.06425781 383.95601563 43.8125 383.875 C42.58595703 383.78863281 41.35941406 383.70226562 40.09570312 383.61328125 C37.06425714 383.40096208 34.03248215 383.19686921 31 383 C34.0706715 392.49321153 37.23491844 401.20457272 42.58203125 409.6796875 C45.71442776 414.80542724 45.80106191 420.16481373 45 426 C43.5087327 429.45495897 41.41862459 432.13531759 39 435 C37.93265625 436.27230469 37.93265625 436.27230469 36.84375 437.5703125 C29.59224073 445.88968101 21.56612303 454.63823934 10 456 C2.52425989 454.31672077 -3.2941454 449.90648366 -9 445 C-9 447.83407295 -8.64696955 450.21105194 -8.125 452.98828125 C-6.19825559 463.69336916 -4.58970407 474.22875894 -4.5 485.125 C-4.48195313 486.01743408 -4.46390625 486.90986816 -4.4453125 487.8293457 C-4.51025797 494.9050196 -6.32975746 498.95846659 -11.05078125 504.3359375 C-15.98056382 508.78040469 -21.09865269 512.54589652 -26.75 516 C-27.37559814 516.38591309 -28.00119629 516.77182617 -28.64575195 517.16943359 C-32.41596303 519.38520231 -35.62743363 520.68944841 -40 521 C-51.95745806 517.78068437 -60.29617522 505.77543787 -67 496 C-68.57863156 493.2502441 -70.04603329 490.465498 -71.5 487.6484375 C-74.74933354 481.91133296 -78.72099467 475.58136886 -85 473 C-84.67 473.66 -84.34 474.32 -84 475 C-83.84674569 476.55331713 -83.7504557 478.11244867 -83.68359375 479.671875 C-83.64145752 480.63544922 -83.59932129 481.59902344 -83.5559082 482.59179688 C-83.5168335 483.63400391 -83.47775879 484.67621094 -83.4375 485.75 C-83.3964917 486.82314453 -83.3554834 487.89628906 -83.31323242 489.00195312 C-82.29160602 517.81900936 -82.38899409 539.69971272 -100.41015625 563.328125 C-105.5997091 568.68205283 -109.15955496 570.25480473 -116.546875 570.515625 C-124.27798471 570.28258785 -130.98577626 568.26147039 -138.25 565.75 C-140.80491541 564.90653033 -143.3651553 564.07985315 -145.92578125 563.25390625 C-147.14604004 562.8583252 -148.36629883 562.46274414 -149.62353516 562.05517578 C-159.30506858 559.02960908 -169.23538118 557.30032098 -179.21118164 555.56176758 C-187.07373615 554.1850295 -194.82302254 552.70884141 -202.5 550.5 C-203.51332397 550.21588257 -203.51332397 550.21588257 -204.54711914 549.92602539 C-211.38155698 547.85511518 -216.19713276 544.18204097 -221 539 C-221.59941406 538.35546875 -222.19882813 537.7109375 -222.81640625 537.046875 C-226.63380123 531.72027736 -229.01504945 525.6053636 -231.66992188 519.63476562 C-235.54770496 511.2155336 -239.93514713 503.42449997 -249 500 C-256.63417691 497.58023857 -266.61365973 497.92235822 -274 501 C-276.02951535 502.28796166 -278.03501678 503.61558 -280 505 C-284.13644025 506.37881342 -287.68843582 506.8399151 -292 506 C-296.55536073 503.29319145 -299.68871583 499.56957462 -302.5625 495.1875 C-305.9328002 490.370118 -310.64543421 487.75316389 -315.52050781 484.65234375 C-321.91043967 480.53884502 -326.48149589 476.42295948 -329 469 C-330.51588992 458.61216488 -326.65722885 451.48431901 -320.75 443.25 C-315.15852026 436.45181202 -308.3815879 432.96874315 -300.375 429.6875 C-299.44300781 429.30525269 -299.44300781 429.30525269 -298.4921875 428.9152832 C-294.29407213 427.28484459 -290.44050489 426.48514514 -286 426 C-286 421.71 -286 417.42 -286 413 C-288.02125 412.34 -290.0425 411.68 -292.125 411 C-306.81094964 405.86807456 -320.1057354 398.05001429 -327.5 383.8125 C-332.85804134 372.42666214 -333.88702223 360.90122685 -329.9375 348.875 C-329.55464844 347.86179687 -329.17179687 346.84859375 -328.77734375 345.8046875 C-327.3398285 340.61807468 -329.40833368 336.76705347 -331.5 332 C-334.50967261 325.14074616 -335.14304544 319.5790935 -335.0625 312.1875 C-335.05798828 311.39923828 -335.05347656 310.61097656 -335.04882812 309.79882812 C-335.03711312 307.86585239 -335.01917998 305.93291607 -335 304 C-335.74378906 303.73316406 -336.48757813 303.46632813 -337.25390625 303.19140625 C-348.37830878 298.36502962 -353.8169027 286.52957515 -359.38671875 276.50390625 C-360.91241115 273.770222 -360.91241115 273.770222 -364 272 C-367.51965707 271.34164688 -371.02868065 270.79780053 -374.57617188 270.3203125 C-380.82580605 269.35460959 -385.64102907 267.06379836 -389.8125 262.125 C-392.16772139 258.76039802 -393 257.08467997 -393 253 C-391.47833867 246.91335468 -388.83284724 244.81044887 -383.67041016 241.48974609 C-379.04355385 238.90855418 -374.12326523 237.27651644 -369.125 235.5625 C-354.17745255 230.56111424 -354.17745255 230.56111424 -343 220 C-341.18854472 212.99570626 -342.44727193 208.23792952 -346 202 C-349.24361363 197.200884 -352.82534109 192.64774349 -356.38330078 188.08007812 C-373.93705857 165.49505602 -373.93705857 165.49505602 -373 155 C-372.87496094 154.34773437 -372.74992187 153.69546875 -372.62109375 153.0234375 C-371.75627658 148.01660123 -372.25378749 144.69573476 -373.9375 139.875 C-376.84934958 131.18017644 -378.17064572 121.38594483 -374 112.875 C-370.58568058 107.80612243 -366.43248385 104.860811 -360.5078125 103.375 C-354.76390706 102.5369834 -351.07692727 103.2408004 -346 106 C-346 106.33 -346 106.66 -346 107 C-346.94101562 106.96519531 -347.88203125 106.93039063 -348.8515625 106.89453125 C-350.09679687 106.86746094 -351.34203125 106.84039062 -352.625 106.8125 C-353.85476563 106.77769531 -355.08453125 106.74289063 -356.3515625 106.70703125 C-360.35300163 107.02834596 -362.63348874 107.84446401 -366 110 C-367.69145439 111.87011374 -367.69145439 111.87011374 -368.8125 114 C-369.21082031 114.680625 -369.60914063 115.36125 -370.01953125 116.0625 C-374.28472547 124.4909316 -371.51619549 132.40129599 -368.77880859 140.76635742 C-368.19482966 142.51392373 -367.59867949 144.25741506 -367 146 C-366.195625 145.7834375 -366.195625 145.7834375 -365.375 145.5625 C-353.32139581 142.70769901 -341.03614037 143.44687932 -329 146 C-328.773125 145.13375 -328.54625 144.2675 -328.3125 143.375 C-326.59075773 138.94766273 -324.31633175 135.60736105 -320.328125 132.83984375 C-316.95448201 131.62284166 -313.66170818 131.75085096 -310.125 131.8125 C-309.43019531 131.81314453 -308.73539062 131.81378906 -308.01953125 131.81445312 C-303.92676577 131.84913758 -299.98679996 132.04292417 -296 133 C-295.67 133.66 -295.34 134.32 -295 135 C-294.01 135.33 -293.02 135.66 -292 136 C-291.67 134.68 -291.34 133.36 -291 132 C-289.35 132 -287.7 132 -286 132 C-286.66 132.33 -287.32 132.66 -288 133 C-287.01 133.33 -286.02 133.66 -285 134 C-285 133.34 -285 132.68 -285 132 C-280.04754399 130.7920839 -276.67431333 130.87531212 -272 133 C-264.27818765 141.34621766 -262.81291456 154.14904433 -263 165 C-258.60743173 164.25232881 -254.62732314 162.96998212 -251.70605469 159.43359375 C-249.46921886 156.12833986 -247.51585657 152.66444316 -245.51953125 149.2109375 C-243.21001295 145.23910838 -240.61987298 141.65707633 -237.6875 138.125 C-236.51767578 136.70574219 -236.51767578 136.70574219 -235.32421875 135.2578125 C-232.91774605 132.92009616 -231.16188057 132.00844032 -228 131 C-226.65949948 130.34786461 -225.32338632 129.68620031 -224 129 C-224 128.34 -224 127.68 -224 127 C-206.46666667 117 -206.46666667 117 -200 117 C-199.484375 115.865625 -198.96875 114.73125 -198.4375 113.5625 C-195.90439476 108.5140657 -192.59245162 104.3331633 -189 100 C-188.42636719 99.25621094 -187.85273438 98.51242188 -187.26171875 97.74609375 C-177.0061276 85.11875989 -160.89907354 77.35672108 -145 75 C-146.5159375 75.2165625 -146.5159375 75.2165625 -148.0625 75.4375 C-151.70833333 75.95833333 -155.35416667 76.47916667 -159 77 C-155.95399065 68.47703154 -152.04140991 58.42521675 -143.75390625 53.7265625 C-142.88572266 53.36691406 -142.88572266 53.36691406 -142 53 C-144.475 56.465 -144.475 56.465 -147 60 C-146.54109375 59.50628906 -146.0821875 59.01257813 -145.609375 58.50390625 C-144.68898438 57.54291016 -144.68898438 57.54291016 -143.75 56.5625 C-143.14671875 55.92441406 -142.5434375 55.28632812 -141.921875 54.62890625 C-139.85616023 52.87808702 -138.6908287 52.20988464 -136 52 C-135.01 52.66 -134.02 53.32 -133 54 C-133.33 54.66 -133.66 55.32 -134 56 C-135.485 56.495 -135.485 56.495 -137 57 C-134.53721199 59.46278801 -132.29323018 59.99771255 -129 61 C-129 60.34 -129 59.68 -129 59 C-122.83331169 54.64771905 -115.87476913 51.34441045 -109.0625 48.125 C-108.43657959 47.82698486 -107.81065918 47.52896973 -107.16577148 47.22192383 C-101.16176102 44.45090409 -95.60320732 43.76798101 -89.0625 43.3125 C-88.02706055 43.22258789 -88.02706055 43.22258789 -86.97070312 43.13085938 C-82.50020504 42.82152633 -79.14369826 43.30750353 -75 45 C-75.33 43.68 -75.66 42.36 -76 41 C-64.12675237 45.33467771 -58.17560769 53.19583735 -52.84765625 64.4296875 C-51.86534821 67.40829898 -51.73401927 69.86777685 -51.75 73 C-51.74484375 74.010625 -51.7396875 75.02125 -51.734375 76.0625 C-52.00636574 79.0703976 -52.73678882 81.27306793 -54 84 C-46.34627223 81.12768129 -46.34627223 81.12768129 -41.02734375 75.1875 C-40.2889815 73.48411547 -39.63714746 71.743772 -39 70 C-38.06934867 72.60582371 -37.85082593 73.64198224 -38.9375 76.25 C-39.288125 76.8275 -39.63875 77.405 -40 78 C-39.67 77.67 -39.34 77.34 -39 77 C-38.34 77 -37.68 77 -37 77 C-35.79371992 74.66785852 -34.8345262 72.50357861 -34 70 C-33.34 70 -32.68 70 -32 70 C-31.62875 69.01 -31.62875 69.01 -31.25 68 C-28.41297097 61.19113033 -26.21703925 56.27421448 -20 52 C-17.625 51.1875 -17.625 51.1875 -16 51 C-16.33 50.01 -16.66 49.02 -17 48 C-15.97519531 47.81824219 -14.95039063 47.63648438 -13.89453125 47.44921875 C-12.5337571 47.19583322 -11.17308527 46.9418978 -9.8125 46.6875 C-8.80219727 46.51057617 -8.80219727 46.51057617 -7.77148438 46.33007812 C-0.29302819 44.90734744 3.49954428 42.08169691 8 36 C10.51732031 31.56472136 10.64795068 26.97302146 10 22 C8.2642719 16.1024693 5.32633069 12.08302647 1.1953125 7.640625 C-0.62978821 5.1355848 -0.4351823 2.97374573 0 0 Z M-129.734375 70.578125 C-131.49282372 72.55366616 -132.81956595 74.6391319 -134 77 C-132.50047375 77.60534154 -131.00034778 78.2091975 -129.5 78.8125 C-128.6646875 79.14894531 -127.829375 79.48539063 -126.96875 79.83203125 C-125.49921875 80.41017578 -125.49921875 80.41017578 -124 81 C-123.40405029 81.25225342 -122.80810059 81.50450684 -122.1940918 81.7644043 C-117.08623111 83.84044515 -112.29037498 84.71163976 -106.8125 85.1875 C-105.95462891 85.26645508 -105.09675781 85.34541016 -104.21289062 85.42675781 C-90.76023085 86.55350343 -76.16473484 87.55033203 -63 84 C-62.505 83.505 -62.505 83.505 -62 83 C-62.49714923 73.55416471 -65.96393089 67.07918841 -72.890625 60.6328125 C-87.87375968 49.03475639 -117.41943843 59.00954822 -129.734375 70.578125 Z M-137 84 C-140.00559652 89.00932754 -140.29341888 92.32723489 -140 98 C-139.34 98 -138.68 98 -138 98 C-138 97.34 -138 96.68 -138 96 C-136.68 95.67 -135.36 95.34 -134 95 C-134 94.34 -134 93.68 -134 93 C-133.34 93 -132.68 93 -132 93 C-131.731875 92.38125 -131.46375 91.7625 -131.1875 91.125 C-130 89 -130 89 -127 87 C-130.00617269 83.99382731 -132.82381598 84.40414684 -137 84 Z M-138 109 C-139.26585666 111.81490425 -139.26585666 111.81490425 -138.390625 113.91015625 C-134.22347104 121.77351869 -127.52045739 129.22694816 -119.375 133.125 C-106.18979013 136.95033867 -88.89809028 134.1894106 -77 128 C-77.08785338 126.58222818 -77.19604647 125.16570961 -77.3125 123.75 C-77.37050781 122.96109375 -77.42851562 122.1721875 -77.48828125 121.359375 C-78.11684083 118.46128352 -78.96133991 117.15581819 -81 115 C-83.63185964 114.1170216 -83.63185964 114.1170216 -86.671875 113.8046875 C-87.80399414 113.64709961 -88.93611328 113.48951172 -90.10253906 113.32714844 C-91.30620117 113.17793945 -92.50986328 113.02873047 -93.75 112.875 C-94.97686523 112.71032227 -96.20373047 112.54564453 -97.46777344 112.37597656 C-99.89557205 112.05137018 -102.32427962 111.73347972 -104.75390625 111.42285156 C-107.3739225 111.08155582 -109.98341931 110.71179215 -112.59375 110.3046875 C-121.14024244 109.00810425 -129.37539765 108.77979739 -138 109 Z M-160 112 C-157.36893239 113.05270463 -157.36893239 113.05270463 -156 113 C-156.97839844 113.71285156 -157.95679688 114.42570312 -158.96484375 115.16015625 C-172.65026715 124.7918446 -172.65026715 124.7918446 -185 136 C-184.67 136.66 -184.34 137.32 -184 138 C-182.04930746 138.52934448 -182.04930746 138.52934448 -179.66381836 138.77783203 C-178.7429393 138.89780548 -177.82206024 139.01777893 -176.87327576 139.14138794 C-175.87224319 139.26230804 -174.87121063 139.38322815 -173.83984375 139.5078125 C-172.82024063 139.63815887 -171.80063751 139.76850525 -170.75013733 139.90280151 C-167.48027968 140.31880566 -164.20898627 140.72202381 -160.9375 141.125 C-158.72580553 141.40410979 -156.51421528 141.68404678 -154.30273438 141.96484375 C-148.86966434 142.65284664 -143.43536059 143.33034748 -138 144 C-139.24999771 140.81219424 -140.56926092 137.88453935 -142.3125 134.9375 C-146.93705437 126.73880626 -150.16493079 117.95285013 -153 109 C-155.37220987 109 -157.92877733 110.94235438 -160 112 Z M-202 124 C-202.33 124.66 -202.66 125.32 -203 126 C-202.34 126 -201.68 126 -201 126 C-201.33 125.34 -201.66 124.68 -202 124 Z M-201 126 C-200 128 -200 128 -200 128 Z M20 134 C17.8382485 137.24262726 17.4741179 138.23792035 18 142 C19.49564063 143.99715451 19.49564063 143.99715451 21.6875 145.6875 C22.51378906 146.37457031 23.34007812 147.06164062 24.19140625 147.76953125 C25.11824219 148.50558594 26.04507812 149.24164063 27 150 C27.97839844 150.78761719 28.95679688 151.57523438 29.96484375 152.38671875 C37.38219003 158.26960224 45.14449511 163.55407976 53.06640625 168.72802734 C55.04422154 170.02909018 57.00798367 171.34918222 58.96875 172.67578125 C70.5385802 181.5966519 70.5385802 181.5966519 84 185 C87.29443321 176.2794415 85.940116 167.88024443 82.22265625 159.47265625 C76.28441426 147.46336813 69.0596004 139.11553196 57 133 C56.33871094 132.65839844 55.67742187 132.31679687 54.99609375 131.96484375 C45.0157592 127.76568147 29.11565767 127.91611241 20 134 Z M-284 134 C-283.67 134.66 -283.34 135.32 -283 136 C-282.67 135.34 -282.34 134.68 -282 134 C-282.66 134 -283.32 134 -284 134 Z M-299 135 C-298.67 135.66 -298.34 136.32 -298 137 C-297.34 136.67 -296.68 136.34 -296 136 C-296.99 135.67 -297.98 135.34 -299 135 Z M-292 136 C-291.67 136.99 -291.34 137.98 -291 139 C-290.67 138.01 -290.34 137.02 -290 136 C-290.66 136 -291.32 136 -292 136 Z M-286 136 C-286.66 137.32 -287.32 138.64 -288 140 C-286.68 138.68 -285.36 137.36 -284 136 C-284.66 136 -285.32 136 -286 136 Z M-28.3359375 148.19140625 C-29.15964844 149.08666016 -29.15964844 149.08666016 -30 150 C-29.67 150.66 -29.34 151.32 -29 152 C-27.68 151.67 -26.36 151.34 -25 151 C-25 151.66 -25 152.32 -25 153 C-21.09945223 157.16955107 -16.70286424 158.06753085 -11.328125 159.2890625 C-10.55984375 159.52367187 -9.7915625 159.75828125 -9 160 C-8.67 160.66 -8.34 161.32 -8 162 C-5.7053175 156.92349571 -3.47890382 151.82011369 -1.3125 146.6875 C-0.68794922 145.20830078 -0.68794922 145.20830078 -0.05078125 143.69921875 C0.82014727 141.46200089 1.49397447 139.34106317 2 137 C-8.38919207 137 -20.71043347 141.03771434 -28.3359375 148.19140625 Z M-293 139 C-292 142 -292 142 -292 142 Z M-366.83203125 154.16796875 C-368.30336729 156.10035327 -368.30336729 156.10035327 -367.921875 159.2890625 C-366.92073736 163.31906572 -365.54130298 165.92132069 -363.25 169.375 C-362.86094482 169.96514893 -362.47188965 170.55529785 -362.07104492 171.16333008 C-358.19322874 176.93693417 -353.89312281 182.38228344 -349.61523438 187.86132812 C-341.46678158 198.41265404 -336.86876847 207.34080132 -338 221 C-341.31377973 229.13382298 -350.2404064 233.39738227 -357.96557617 236.67871094 C-363.11580917 238.78655078 -368.30569615 240.76290098 -373.546875 242.6328125 C-374.27374512 242.89505615 -375.00061523 243.1572998 -375.74951172 243.42749023 C-377.13196253 243.92181247 -378.51890442 244.40380802 -379.91064453 244.87133789 C-383.73952779 246.22906641 -386.02616313 247.38364889 -388 251 C-388.83399875 253.91318914 -388.83399875 253.91318914 -388 257 C-384.03282168 262.57294098 -378.31652791 264.16252981 -371.890625 265.54296875 C-368.48982943 266.0806621 -365.42946788 266.23382736 -362 266 C-361.68546875 265.11957031 -361.3709375 264.23914063 -361.046875 263.33203125 C-360.61890625 262.17058594 -360.1909375 261.00914062 -359.75 259.8125 C-359.33234375 258.66394531 -358.9146875 257.51539063 -358.484375 256.33203125 C-357.01941791 253.04358811 -355.28586397 250.74987482 -353 248 C-353 247.34 -353 246.68 -353 246 C-347.62751618 243.31375809 -342.54507861 243.16895392 -336.9375 245 C-327.97830061 251.09988043 -323.72137211 260.58178238 -319 270 C-318.34 269.67 -317.68 269.34 -317 269 C-316.95875 268.113125 -316.9175 267.22625 -316.875 266.3125 C-315.56151164 261.34000834 -312.23825675 259.61440359 -308 257 C-303.36888111 254.3188259 -298.21420356 254.33986846 -293 255 C-288.8723133 256.87622123 -287.37981205 258.36289592 -285.0625 262.25 C-283.53248147 267.65006541 -284.21793914 271.65381741 -286 277 C-288.61497339 278.23867161 -291.25511949 279.08503983 -294 280 C-294 280.66 -294 281.32 -294 282 C-293.26394531 282.15855469 -292.52789062 282.31710937 -291.76953125 282.48046875 C-281.3525406 284.9711891 -281.3525406 284.9711891 -278 290 C-276.59279652 294.31067397 -276.62249539 297.13009808 -278.4375 301.3125 C-278.953125 302.199375 -279.46875 303.08625 -280 304 C-280 304.99 -280 305.98 -280 307 C-279.05253906 307.20302734 -279.05253906 307.20302734 -278.0859375 307.41015625 C-266.17448342 310.27645716 -256.11232468 315.81670162 -246.421875 323.19921875 C-243.40789422 325.4402593 -240.30987899 327.2347312 -237 329 C-237 328.34 -237 327.68 -237 327 C-223.27731092 323.90756303 -223.27731092 323.90756303 -216.8125 326.0625 C-213.12442968 328.60317066 -211.95936991 331.00589979 -210 335 C-206.04143062 332.36095375 -205.16067048 329.06094621 -203.4375 324.8125 C-200.70635789 318.36850896 -197.66910149 312.42894368 -193.75 306.625 C-193.33806396 306.01374268 -192.92612793 305.40248535 -192.50170898 304.77270508 C-190.25414414 301.53867105 -187.88213875 298.68382645 -185 296 C-185.33 295.34 -185.66 294.68 -186 294 C-187.134375 294.3609375 -188.26875 294.721875 -189.4375 295.09375 C-190.95815225 295.56308711 -192.478996 296.03180409 -194 296.5 C-194.74378906 296.73847656 -195.48757812 296.97695313 -196.25390625 297.22265625 C-203.42022548 299.40370993 -210.03717537 300.0607654 -217.109375 297.109375 C-221.54757817 294.50514008 -224.22751472 290.65030946 -226.375 286.0625 C-227.85647084 278.80329289 -227.40318094 274.43313255 -223.52734375 268.15234375 C-218.6121439 261.22580892 -212.1013213 256.8267601 -205.0859375 252.2109375 C-201.99728118 249.99805208 -199.59657363 247.75101667 -197 245 C-198.21623047 245.2165625 -198.21623047 245.2165625 -199.45703125 245.4375 C-210.84117394 247.3459011 -220.28219125 247.80792828 -231.31640625 244.25390625 C-235.06628196 243.89911452 -237.22424938 245.19620421 -240.5625 246.875 C-249.65864664 251.39678388 -260.22769673 253.26306393 -270.1328125 249.953125 C-272.51683626 248.7433219 -274.74941879 247.43932519 -277 246 C-277.72703125 245.65066406 -278.4540625 245.30132812 -279.203125 244.94140625 C-281.61817027 243.67613253 -281.92117948 242.49477246 -283 240 C-283.99 238.5459375 -283.99 238.5459375 -285 237.0625 C-287.62800225 232.59782704 -287.98782568 227.76344912 -288.60546875 222.6953125 C-288.71310701 220.08781353 -288.71310701 220.08781353 -290 219 C-291.99267003 218.80559317 -293.98600176 218.61630514 -295.98168945 218.45581055 C-305.72834285 217.63898693 -313.0920424 216.0354318 -320.8125 209.6875 C-331.34900323 196.74265317 -334.78006401 180.47204939 -334 164 C-333.47527968 159.63797718 -332.79206789 155.32101324 -332 151 C-343.32032439 149.43857595 -356.70611185 147.71242525 -366.83203125 154.16796875 Z M-215.09375 160.08203125 C-216.28484375 161.43361328 -216.28484375 161.43361328 -217.5 162.8125 C-218.2940625 163.70582031 -219.088125 164.59914062 -219.90625 165.51953125 C-222.08751882 168.00906487 -222.08751882 168.00906487 -224 171 C-223.67896885 174.37082704 -221.98316433 177.33819765 -220.57519531 180.38256836 C-217.31478665 187.43366284 -215.02344887 193.93492265 -213.703125 201.62109375 C-213.47109375 202.40613281 -213.2390625 203.19117188 -213 204 C-208.88709276 205.37096908 -206.26793418 203.86714169 -202.4375 202.3125 C-201.75236328 202.05533203 -201.06722656 201.79816406 -200.36132812 201.53320312 C-196.51511749 200.01655943 -196.51511749 200.01655943 -193.66430664 197.14257812 C-192.77373595 195.0221146 -192.77373595 195.0221146 -193.6875 193.03979492 C-194.120625 192.36021729 -194.55375 191.68063965 -195 190.98046875 C-195.47260254 190.2121875 -195.94520508 189.44390625 -196.43212891 188.65234375 C-197.2082251 187.43224609 -197.2082251 187.43224609 -198 186.1875 C-203.54600363 177.0928236 -207.62971546 168.11085361 -211 158 C-213.25575968 157.76496013 -213.25575968 157.76496013 -215.09375 160.08203125 Z M-8 165 C-14.30067073 176.12141648 -18 183.96573179 -18 197 C-11.4 196.34 -4.8 195.68 2 195 C0.93643509 191.80930527 -0.13398903 188.62057312 -1.25390625 185.44921875 C-3.63042847 178.61760414 -5.61708359 172.27541181 -6 165 C-6.66 165 -7.32 165 -8 165 Z M-296 167 C-295 170 -295 170 -295 170 Z M184 171 C185 173 185 173 185 173 Z M-295 172 C-294 174 -294 174 -294 174 Z M24 174 C26.37629089 178.14670039 26.37629089 178.14670039 30 181 C29.34 179.35 28.68 177.7 28 176 C28.99 176.33 29.98 176.66 31 177 C31.57234375 176.85691406 32.1446875 176.71382812 32.734375 176.56640625 C35.92715013 175.76821247 38.9655474 175.9070884 42.25 175.9375 C44.14492188 175.95103516 44.14492188 175.95103516 46.078125 175.96484375 C47.04234375 175.97644531 48.0065625 175.98804688 49 176 C49 175.67 49 175.34 49 175 C43.67132017 173.89058633 38.53718145 173.88451931 33.125 173.9375 C32.24585938 173.94201172 31.36671875 173.94652344 30.4609375 173.95117188 C28.30726197 173.96287663 26.15362183 173.98080931 24 174 Z M0 201 C1.98 201.99 1.98 201.99 4 203 C4 202.34 4 201.68 4 201 C2.68 201 1.36 201 0 201 Z M6 203 C5.01 203.495 5.01 203.495 4 204 C5.7472544 205.29537826 7.49791517 206.58616273 9.25 207.875 C10.22453125 208.59429687 11.1990625 209.31359375 12.203125 210.0546875 C15.44478412 212.33410439 15.44478412 212.33410439 19 214 C19.99 213.67 20.98 213.34 22 213 C22.185625 213.598125 22.37125 214.19625 22.5625 214.8125 C24.76794061 218.16860528 27.22714933 218.82484979 31 220 C34.78673743 219.9491946 34.78673743 219.9491946 38 219 C38.33 218.34 38.66 217.68 39 217 C38.01 217 37.02 217 36 217 C35.896875 216.401875 35.79375 215.80375 35.6875 215.1875 C34.90175967 212.68741714 34.03081147 211.62464918 32 210 C31.34 210 30.68 210 30 210 C30 209.34 30 208.68 30 208 C18.26608465 201.10760289 18.26608465 201.10760289 6 203 Z M67 202 C67 202.66 67 203.32 67 204 C67.65226562 204.23074219 68.30453125 204.46148437 68.9765625 204.69921875 C74.60296364 206.79874602 78.5525052 208.99725468 83 213 C83.66 213 84.32 213 85 213 C85 213.66 85 214.32 85 215 C86.62626404 216.38232443 88.2925002 217.71937515 90 219 C90.64412489 214.70583407 89.87370044 212.32574545 87.4375 208.875 C84.31814853 205.04370243 81.54459236 202.94768244 77 201 C73.41811347 200.64883465 70.43297291 200.94370064 67 202 Z M-10.625 227.625 C-13.12370976 229.81484177 -13.12370976 229.81484177 -14.0625 232.625 C-13.91631228 240.51913703 -9.53718367 247.05875253 -5.4375 253.5625 C-5.04965332 254.18253906 -4.66180664 254.80257812 -4.26220703 255.44140625 C-1.89662322 259.13859287 -1.89662322 259.13859287 2 261 C1.65154854 253.56056129 0.42647009 246.30796225 -0.9375 239 C-1.10733398 238.06776611 -1.27716797 237.13553223 -1.45214844 236.17504883 C-1.62133789 235.29228271 -1.79052734 234.4095166 -1.96484375 233.5 C-2.1155835 232.7059375 -2.26632324 231.911875 -2.42163086 231.09375 C-2.959188 228.72199315 -2.959188 228.72199315 -5 226 C-8.0894128 225.73682269 -8.0894128 225.73682269 -10.625 227.625 Z M-82 235 C-82.50403768 236.29009643 -83.00309926 237.58213789 -83.5 238.875 C-83.7784375 239.59429687 -84.056875 240.31359375 -84.34375 241.0546875 C-85.10655018 242.97367461 -85.10655018 242.97367461 -85 245 C-83.68 244.67 -82.36 244.34 -81 244 C-81 241.03 -81 238.06 -81 235 C-81.33 235 -81.66 235 -82 235 Z M91 236 C89.91280319 237.21060834 88.87945376 238.46990544 87.875 239.75 C83.37151912 245.05097229 78.01504979 248.28050771 71 249 C65.2746678 249.22452283 59.68023198 248.64002614 54 248 C53.84144531 248.72703125 53.68289063 249.4540625 53.51953125 250.203125 C49.77168389 266.35406942 42.55174472 280.24152021 32 293 C31.54625 293.57621094 31.0925 294.15242188 30.625 294.74609375 C28.75209185 297.09308177 27.03382153 298.97651433 24.55859375 300.6953125 C21.3720016 303.56567795 20.17533754 306.65216364 18.6875 310.5625 C13.55626833 323.05507012 6.72620722 332.61521743 -5.75 338.375 C-13.22533807 341.10791929 -20.76786621 341.26624813 -28.125 338.125 C-30.58110412 336.91044302 -32.04344247 335.95655753 -34 334 C-36.85234295 334.21392572 -39.42542066 334.79931972 -42.125 335.7421875 C-52.9241514 339.47215755 -64.3506775 339.22087575 -75 335 C-77.20628413 333.80475093 -79.01738199 332.55394384 -81 331 C-80.67 330.01 -80.34 329.02 -80 328 C-78.68 328.33 -77.36 328.66 -76 329 C-77.38188453 325.78956118 -78.92421903 323.95063635 -81.625 321.75 C-82.25664062 321.22921875 -82.88828125 320.7084375 -83.5390625 320.171875 C-84.02117187 319.78515625 -84.50328125 319.3984375 -85 319 C-85.45868887 328.02088118 -84.95409363 338.10393971 -78.9375 345.3125 C-77.66065256 346.57866253 -76.34538766 347.80692038 -75 349 C-74.25492187 349.68835938 -73.50984375 350.37671875 -72.7421875 351.0859375 C-62.43375937 360.00223064 -51.7127829 363.20208762 -38.375 363 C-36.67454323 362.97446762 -34.97401121 362.95344288 -33.2734375 362.9375 C-32.15074463 362.92009766 -32.15074463 362.92009766 -31.00537109 362.90234375 C-29 363 -29 363 -26 364 C-24.24818361 367.50363277 -25.18845626 371.26941519 -26 375 C-29.26430273 381.17885873 -33.12165136 384.56261908 -39.75 386.625 C-44.46459403 387.92045151 -49.21545345 388.99678863 -54 390 C-54.0928125 391.74023438 -54.0928125 391.74023438 -54.1875 393.515625 C-54.81392115 398.52258276 -57.05953022 401.75586188 -60 405.75 C-60.92177477 407.03280322 -61.83863391 408.31915615 -62.75 409.609375 C-63.15734375 410.16592773 -63.5646875 410.72248047 -63.984375 411.29589844 C-65.10394256 413.17440362 -65.5710002 414.86549286 -66 417 C-64.63875 416.4121875 -64.63875 416.4121875 -63.25 415.8125 C-62.61707031 415.54308594 -61.98414063 415.27367187 -61.33203125 414.99609375 C-59.57608187 414.24606512 -57.82414114 413.48664106 -56.07421875 412.72265625 C-54.52154297 412.05556641 -54.52154297 412.05556641 -52.9375 411.375 C-51.95652344 410.94960938 -50.97554688 410.52421875 -49.96484375 410.0859375 C-39.0256659 406.07922941 -26.7412878 407.89811721 -15.43310547 409.28393555 C-9.9140439 409.94706006 -4.5644408 410.17949809 1 410 C0.4033288 404.62995923 -0.54270465 399.52397444 -1.75 394.25 C-4.00829515 382.99254261 -1.03560383 374.34529879 4.97265625 364.640625 C11.50026674 356.1383809 21.01647463 354.08544752 31 352 C30.84144531 351.04351562 30.68289063 350.08703125 30.51953125 349.1015625 C28.32062568 333.54909009 29.0976768 317.88843519 38.5390625 304.8046875 C40.22505638 302.72198918 42.06965759 300.85609847 44 299 C44 298.34 44 297.68 44 297 C44.58652344 296.72800781 45.17304688 296.45601563 45.77734375 296.17578125 C47.95688333 295.02280864 49.65909709 293.74557711 51.5625 292.1875 C62.8485983 283.62346622 75.6121759 280.81884235 89.5 282.5 C90.655 282.665 91.81 282.83 93 283 C99.85085021 268.93247748 99.97636825 257.0218356 96 242 C95.0590392 239.9715541 94.07644541 237.95991461 93 236 C92.34 236 91.68 236 91 236 Z M-143 237 C-142.67 237.99 -142.34 238.98 -142 240 C-142 239.01 -142 238.02 -142 237 C-142.33 237 -142.66 237 -143 237 Z M-143 244 C-143.33 245.98 -143.66 247.96 -144 250 C-143.34 249.01 -142.68 248.02 -142 247 C-142.33 246.01 -142.66 245.02 -143 244 Z M-95 247 C-92.39535473 248.36323305 -89.86614538 249.43535183 -87.0625 250.3125 C-74.07508416 254.60603715 -63.42434677 259.32576901 -53.5703125 269.03125 C-52.00077863 270.22162932 -52.00077863 270.22162932 -49.86328125 269.765625 C-47.3171368 268.71941051 -47.16372336 267.46435534 -46 265 C-44.33333333 263.33333333 -42.66666667 261.66666667 -41 260 C-40.67 259.01 -40.34 258.02 -40 257 C-37.9375 255.8125 -37.9375 255.8125 -36 255 C-40.93484886 252.74093585 -45.80219701 250.59116418 -51 249 C-51.79664063 248.7525 -52.59328125 248.505 -53.4140625 248.25 C-67.53354684 243.91835879 -80.56056486 244.73499057 -95 247 Z M-147 246 C-146 248 -146 248 -146 248 Z M-148 248 C-147 250 -147 250 -147 250 Z M-348.75 250.4375 C-353.19360619 255.49827372 -355.87541237 260.73464888 -355.5 267.59765625 C-353.40512554 277.66287336 -343.61292851 291.28450827 -335 297 C-334.76216797 295.83984375 -334.76216797 295.83984375 -334.51953125 294.65625 C-332.92940723 287.55779581 -331.15633402 280.39119071 -325.28125 275.59765625 C-323.73577341 274.03832376 -323.73577341 274.03832376 -324.1484375 271.6796875 C-326.714557 263.6046509 -330.70041557 254.78460156 -338 250 C-341.94665338 248.49364375 -344.91990001 248.43540228 -348.75 250.4375 Z M-149 250 C-148 252 -148 252 -148 252 Z M-145 250 C-145.33 251.32 -145.66 252.64 -146 254 C-145.34 253.67 -144.68 253.34 -144 253 C-144.33 252.01 -144.66 251.02 -145 250 Z M-315 268 C-315 268.66 -315 269.32 -315 270 C-315.66 270 -316.32 270 -317 270 C-316.35716144 273.04575421 -316.35716144 273.04575421 -314.3203125 273.94921875 C-307.87535801 276.11665006 -300.47854393 277.93783151 -293.96875 275.12109375 C-292.01542032 273.84181199 -292.01542032 273.84181199 -290 271 C-289.24954494 267.41456334 -289.24954494 267.41456334 -290 264 C-291.54262813 261.89641619 -292.68108317 261.15945841 -295 260 C-302.36286639 259.0796417 -310.20599958 262.19427871 -315 268 Z M-68.83203125 268.8984375 C-74.19054442 272.89354199 -77.62631609 277.24940243 -81 283 C-77.69579338 286.40815918 -74.18861171 289.26242783 -70.421875 292.13671875 C-68.85140877 293.34496454 -67.29788421 294.57568585 -65.765625 295.83203125 C-57.43810187 302.60921763 -49.89066962 306.74511199 -39 307 C-39.36409174 300.08225688 -43.05792916 293.72679736 -48.08203125 289.0703125 C-48.81808594 288.46960938 -49.55414063 287.86890625 -50.3125 287.25 C-55.04317784 283.36780245 -57.926986 278.87765327 -60.9934082 273.65917969 C-63.74039358 268.55684262 -63.74039358 268.55684262 -68.83203125 268.8984375 Z M-50 270 C-49.34 270.66 -48.68 271.32 -48 272 C-48 271.34 -48 270.68 -48 270 C-48.66 270 -49.32 270 -50 270 Z M156 276 C155.66226563 276.88042969 155.32453125 277.76085937 154.9765625 278.66796875 C154.53054688 279.82941406 154.08453125 280.99085938 153.625 282.1875 C153.18414063 283.33605469 152.74328125 284.48460937 152.2890625 285.66796875 C151.21147857 288.45335994 150.1163557 291.22997721 149 294 C149.66 294 150.32 294 151 294 C154.36561591 287.9394075 156.61330541 282.96050253 157 276 C156.67 276 156.34 276 156 276 Z M70.75 284.375 C68.91695313 284.75785156 68.91695313 284.75785156 67.046875 285.1484375 C63.91883233 285.75405053 63.91883233 285.75405053 62 288 C66.09512513 287.56355809 70.17888389 287.12632556 74.25 286.5 C79.81373728 285.75816836 85.40239148 285.39562045 91 285 C91 284.67 91 284.34 91 284 C83.81170214 282.84987234 77.88187164 282.84240631 70.75 284.375 Z M85 287 C89.11174586 288.37058195 91.73660595 287.75640862 96 287 C96.33 286.34 96.66 285.68 97 285 C92.53160785 284.78721942 89.17737474 285.40861915 85 287 Z M-317.4375 299.70703125 C-319.6712454 301.70582477 -321.55338636 302.90638962 -324.1875 304.25 C-327.6514387 307.63696228 -327.52309878 308.88818988 -327.6875 313.625 C-327.37058557 320.30133071 -325.76727836 325.94657859 -323 332 C-319.59438899 328.70751243 -316.62804921 325.31995314 -313.75 321.5625 C-305.95158145 311.91845573 -297.76419745 308.16255803 -285.64453125 306.7578125 C-282.9018782 306.26615979 -282.9018782 306.26615979 -281.65625 304.14453125 C-280.3565455 299.89728261 -280.41174113 296.29416952 -282.25 292.25 C-286.00391859 287.42353324 -289.27633638 286.38131291 -295.125 285.5625 C-304.35592117 286.60470078 -310.99549538 293.51209214 -317.4375 299.70703125 Z M-81 287 C-80.36020151 289.03241727 -80.36020151 289.03241727 -79 291 C-76.44480079 291.81171228 -76.44480079 291.81171228 -74 292 C-76.36292656 289.47411298 -77.66462511 288.11179163 -81 287 Z M78 290 C77.67 290.66 77.34 291.32 77 292 C78.32 291.34 79.64 290.68 81 290 C80.01 290 79.02 290 78 290 Z M-74 292 C-72.71937515 293.7074998 -71.38232443 295.37373596 -70 297 C-69.34 297 -68.68 297 -68 297 C-67.773125 297.78375 -67.54625 298.5675 -67.3125 299.375 C-65.63347857 302.73304285 -64.44867106 302.73565127 -61 304 C-58.41880683 305.32982445 -55.86008605 306.69554628 -53.3046875 308.07421875 C-50.90364011 309.32735577 -50.90364011 309.32735577 -48 308 C-48.89460938 307.5153125 -49.78921875 307.030625 -50.7109375 306.53125 C-57.69634886 302.68016909 -64.03359753 298.69955179 -70.109375 293.46875 C-71.86421872 291.79550377 -71.86421872 291.79550377 -74 292 Z M115 301 C115 301.66 115 302.32 115 303 C114.01 303.33 113.02 303.66 112 304 C112 304.66 112 305.32 112 306 C111.34 306 110.68 306 110 306 C109.67 306.99 109.34 307.98 109 309 C112.12693125 307.58693487 114.46278824 305.85054764 117.0625 303.625 C124.81825429 297.52211138 133.2650946 295.42233863 143 295 C143 294.67 143 294.34 143 294 C132.47866786 293.45422485 123.2920727 293.85230837 115 301 Z M-148 304 C-147 306 -147 306 -147 306 Z M-145 308 C-143.8321734 311.81413002 -143.8321734 311.81413002 -140.875 314.3125 C-140.25625 314.539375 -139.6375 314.76625 -139 315 C-140.22934015 311.31197956 -141.93859378 310.27643027 -145 308 Z M-139 309 C-138 311 -138 311 -138 311 Z M66 309 C58.26133478 323.81559184 53.72361433 336.01763587 54 353 C55.71838848 353.83951833 55.71838848 353.83951833 58 354 C64.65069195 350.47904544 70.22687857 346.05885455 73 339 C74.20464277 332.72778179 73.70270167 327.9135322 72.1875 321.75 C71.91969727 320.56664062 71.91969727 320.56664062 71.64648438 319.359375 C70.77255391 315.62387436 69.81280457 312.40215827 68 309 C67.34 309 66.68 309 66 309 Z M-293 312 C-293 312.33 -293 312.66 -293 313 C-286.56688704 313.09507063 -280.34241995 313.15316726 -274 312 C-274 311.67 -274 311.34 -274 311 C-280.89836454 310.06161953 -286.33928512 309.86354428 -293 312 Z M-21.32421875 314.1796875 C-22.89780949 316.03825923 -23.93541048 317.81327559 -25 320 C-25.42667969 320.62390625 -25.85335938 321.2478125 -26.29296875 321.890625 C-28.5847886 325.29380251 -28.5847886 325.29380251 -28.5625 329.25 C-25.98784753 332.13361077 -23.89603136 333.84347959 -19.91796875 334.171875 C-14.64528869 333.92036726 -11.29985403 332.47616726 -7.5078125 328.81640625 C-3.92405005 324.49917946 -2 320.62676209 -2 315 C-11.8141721 312.58237608 -11.8141721 312.58237608 -21.32421875 314.1796875 Z M-288 314 C-287.34 314.66 -286.68 315.32 -286 316 C-284.68 315.34 -283.36 314.68 -282 314 C-283.98 314 -285.96 314 -288 314 Z M-139 315 C-138.67 315.99 -138.34 316.98 -138 318 C-137.34 317.67 -136.68 317.34 -136 317 C-136.33 316.34 -136.66 315.68 -137 315 C-137.66 315 -138.32 315 -139 315 Z M-136 320 C-136 320.66 -136 321.32 -136 322 C-135.34 321.67 -134.68 321.34 -134 321 C-134.66 320.67 -135.32 320.34 -136 320 Z M-134 323 C-134 323.66 -134 324.32 -134 325 C-133.34 324.67 -132.68 324.34 -132 324 C-132.66 323.67 -133.32 323.34 -134 323 Z M-231.109375 327.234375 C-233.61010518 327.77964699 -235.00932595 328.37048496 -237 330 C-238.62419453 333.05384765 -239.69800725 336.09723902 -240.77734375 339.3828125 C-242.00218827 343.00647391 -243.51055948 346.31530255 -245.1875 349.75 C-247.59055909 354.83410702 -249.06176239 359.46439812 -250 365 C-249.40058594 364.80664062 -248.80117187 364.61328125 -248.18359375 364.4140625 C-239.74756132 361.99005318 -231.39157411 361.2785356 -222.65991211 360.64697266 C-221.68546143 360.57526855 -220.71101074 360.50356445 -219.70703125 360.4296875 C-218.8250708 360.37022949 -217.94311035 360.31077148 -217.03442383 360.24951172 C-215.0076063 360.21286293 -215.0076063 360.21286293 -214 359 C-213.43111597 355.60612319 -213.15121464 352.17351848 -212.8125 348.75 C-212.65104492 347.31720703 -212.65104492 347.31720703 -212.48632812 345.85546875 C-212.39416016 344.92863281 -212.30199219 344.00179688 -212.20703125 343.046875 C-212.1191333 342.19963867 -212.03123535 341.35240234 -211.94067383 340.47949219 C-212.02860012 336.80467985 -213.15460023 334.05332242 -215.4453125 331.19921875 C-218.71509876 328.25641112 -220.4619996 327.0768572 -224.9375 326.4375 C-227.00813151 326.64616829 -229.04089206 327.00454356 -231.109375 327.234375 Z M-155 328 C-155.68206723 329.19970754 -156.34490897 330.41035205 -157 331.625 C-157.556875 332.63433594 -157.556875 332.63433594 -158.125 333.6640625 C-159.97865428 338.61265742 -158.98081611 342.66249869 -157.125 347.4375 C-152.30732688 361.23482683 -152.79301405 375.43988804 -153.11645508 389.83959961 C-153.16500073 392.1834219 -153.19464421 394.52694912 -153.22265625 396.87109375 C-153.24441422 397.5702037 -153.26617218 398.26931366 -153.28858948 398.98960876 C-153.33413807 403.56852932 -152.48532818 407.05032022 -150.71556091 411.19398499 C-147.31945263 419.76547406 -148.6573673 428.66685413 -151.68359375 437.0390625 C-157.61556316 450.38159311 -170.03863036 456.74853598 -183 462 C-207.30461513 471.21539113 -236.16240945 474.99106961 -260.7265625 464.21875 C-273.10521169 457.58277312 -279.64694508 447.05916477 -284 434 C-296.27819992 434.05658157 -308.25190343 439.43763796 -317 448 C-322.18277252 454.05697511 -323.52586472 459.14398914 -323.375 467.0078125 C-322.8950309 470.83756594 -322.0115813 472.56622627 -319.29296875 475.24609375 C-315.61385547 478.06027069 -311.67653373 480.47737167 -307.75610352 482.93994141 C-302.00692577 486.68211029 -298.18674964 491.03347768 -294.1484375 496.53125 C-291.80712289 499.22163333 -290.45171107 500.19283064 -287 501 C-283.18751498 500.66588551 -280.29077888 499.28288707 -276.9375 497.5 C-268.30980175 492.92692111 -257.9387372 492.77612707 -248.38671875 494.4609375 C-246.4375 495.125 -246.4375 495.125 -243 497 C-242.35160156 497.34417969 -241.70320313 497.68835938 -241.03515625 498.04296875 C-232.2240576 503.53933547 -228.30942569 514.26029903 -223.94946289 523.29052734 C-219.58984276 532.27060856 -215.53442495 540.43618237 -205.6875 544.1953125 C-194.23181792 547.62535684 -182.8730743 548.57855673 -171 549 C-170.7834375 548.13375 -170.7834375 548.13375 -170.5625 547.25 C-170.376875 546.5075 -170.19125 545.765 -170 545 C-169.88914063 544.31808594 -169.77828125 543.63617187 -169.6640625 542.93359375 C-168.22971637 538.7571153 -163.71669693 536.93030054 -160 535 C-146.12562342 529.47748369 -132.80759324 527.65277093 -118 527 C-118.56163105 523.27103108 -119.54643805 520.81645823 -121.625 517.6875 C-129.64786882 504.69625217 -136.88472392 488.57668884 -135 473 C-133.37793181 466.51172722 -129.39871595 463.20398554 -124.47265625 458.8203125 C-118.08657704 451.53634853 -116.14657223 441.40618418 -113.4375 432.3125 C-112.67160892 429.74409909 -111.89840952 427.17829087 -111.12109375 424.61328125 C-110.61727173 422.92392456 -110.61727173 422.92392456 -110.10327148 421.20043945 C-107.83266034 414.61370756 -105.39217505 410.19608752 -99 407 C-93.52112585 406.08492377 -89.79867398 406.73726406 -85.1875 409.875 C-84.12595703 410.67550781 -84.12595703 410.67550781 -83.04296875 411.4921875 C-81.09606116 412.92910209 -79.19085029 413.98580863 -77 415 C-66.40030203 404.97099054 -66.40030203 404.97099054 -60.7890625 392.3046875 C-60.74873768 390.03802409 -60.74873768 390.03802409 -62 389 C-63.82302177 388.88553119 -65.64682691 388.77833371 -67.47216797 388.71020508 C-82.02759482 388.16574163 -96.57773617 386.19731919 -107.0625 375.0625 C-115.61773256 364.61957442 -122.48252975 352.7605086 -129.44604492 341.23339844 C-130.93033604 338.79865434 -132.45034423 336.39355898 -134 334 C-134.39775635 333.35998047 -134.7955127 332.71996094 -135.20532227 332.06054688 C-136.77896497 329.81465882 -138.16334151 328.20216092 -140.88842773 327.54370117 C-143.06461501 327.40934988 -145.13802425 327.47342796 -147.3125 327.625 C-148.05306641 327.65207031 -148.79363281 327.67914063 -149.55664062 327.70703125 C-151.37235998 327.77731716 -153.18656801 327.88492911 -155 328 Z M110 346 C111.59403665 349.67556994 113.39287452 351.41422832 117.015625 353.29296875 C120.55970195 354.55572058 123.54777292 354.19328367 127 353 C134.97374359 349.11330086 138.9978452 343.86237595 142.3125 335.8125 C142.97947082 333.08398301 143.16443372 330.79537324 143 328 C132.03163479 328 117.64178969 338.72210506 110 346 Z M152 329 C151.78085937 329.75023437 151.56171875 330.50046875 151.3359375 331.2734375 C148.07813465 341.78845972 144.73858629 350.11892231 134.953125 355.84375 C132.8618379 356.97265661 132.8618379 356.97265661 131 359 C138.27107796 361.58527217 145.29919521 361.91003397 152.8125 360.0625 C158.13580942 356.61800567 160.77491822 351.67290571 163.375 346 C164.68328607 340.00782275 164.68328607 340.00782275 164 334 C161.65702284 331.60150205 159.14296758 330.14133312 156 329 C154.68 329 153.36 329 152 329 Z M-281 344 C-289.7425313 353.18209991 -296.78118694 364.93459919 -297.0625 377.875 C-295.65907446 380.68185108 -293.96247129 380.97781348 -291.1015625 381.97265625 C-287.53218851 383.7175361 -284.97194931 386.64227544 -282.2109375 389.453125 C-280.09705985 391.25215995 -280.09705985 391.25215995 -277.41796875 390.96875 C-274.56046235 389.82390091 -273.64544588 388.78099501 -271.9375 386.25 C-271.4321875 385.52683594 -270.926875 384.80367188 -270.40625 384.05859375 C-269.71015625 383.03958984 -269.71015625 383.03958984 -269 382 C-266.22710542 378.38683434 -263.266458 375.17572305 -260 372 C-260.47050781 371.23816406 -260.94101562 370.47632813 -261.42578125 369.69140625 C-267.82424955 359.08028181 -270.38982758 350.25625358 -272 338 C-275.13652181 338 -278.77929869 342.07564878 -281 344 Z M-222 398 C-223.6510693 400.35097911 -225.08782069 402.63620873 -226.5 405.125 C-227.08587891 406.12273437 -227.08587891 406.12273437 -227.68359375 407.140625 C-232.0411726 413.72146096 -232.0411726 413.72146096 -234 421 C-226.84520077 420.62343162 -220.56535716 416.79774298 -215.80078125 411.6015625 C-214.1229835 409.44390779 -212.52280892 407.26908614 -211 405 C-213.57784846 402.35247996 -215.91648098 400.05567935 -219 398 C-219.99 398 -220.98 398 -222 398 Z M104 415 C105.13294598 422.45856107 107.00796606 428.09742677 113 433 C119.45061205 437.03163253 125.67223784 436.19043068 133 435 C136.12308711 434.17949156 138.98445485 433.1755515 142 432 C142.33939079 428.82813749 142.33939079 428.82813749 139.8046875 426.625 C138.83789062 425.75875 137.87109375 424.8925 136.875 424 C135.92367187 423.13375 134.97234375 422.2675 133.9921875 421.375 C126.80799319 415.672663 120.61124408 414.83382826 111.6875 414.9375 C110.57665039 414.94426758 110.57665039 414.94426758 109.44335938 414.95117188 C107.62887101 414.96287825 105.81442466 414.98081102 104 415 Z M-103.90234375 423.546875 C-106.6721738 427.74495931 -108.1845866 432.39613528 -109.8125 437.125 C-110.13669922 438.01832031 -110.46089844 438.91164063 -110.79492188 439.83203125 C-111.09591797 440.69441406 -111.39691406 441.55679687 -111.70703125 442.4453125 C-111.9800708 443.22406738 -112.25311035 444.00282227 -112.53442383 444.80517578 C-113.05061863 447.23862691 -112.78997893 448.66692225 -112 451 C-111.55011719 450.60167969 -111.10023438 450.20335937 -110.63671875 449.79296875 C-100.73476248 441.63724926 -90.26319951 441.55316277 -78 442 C-78.76974869 432.45511619 -80.02350905 423.97649095 -87 417 C-94.96200572 413.01899714 -99.31854618 417.4100454 -103.90234375 423.546875 Z M153.6875 430.875 C152.8521875 431.431875 152.8521875 431.431875 152 432 C155.91063224 433.47047336 155.91063224 433.47047336 160 434 C160.33 434.66 160.66 435.32 161 436 C161.66 436 162.32 436 163 436 C161.96556141 433.17880386 161.26779294 432.15503802 158.625 430.625 C156.01974811 429.745397 156.01974811 429.745397 153.6875 430.875 Z M185.125 437.8125 C183.51816519 440.93690102 183.12298342 443.49497258 183 447 C184.81498902 451.59085459 187.81173247 453.55684394 192 456 C195.72347734 457.24115911 199.13214172 457.5420862 203 457 C207.6314797 454.46579412 211.31032562 452.06902315 213 447 C213.3711875 441.98896872 213.11788946 439.00871501 210 435 C205.91424827 431.22502133 202.33371977 431.50753584 196.984375 431.64453125 C191.8638148 432.25444091 188.84002162 434.22131243 185.125 437.8125 Z " fill="#000000" transform="translate(419,17)"/>
<path d="M0 0 C3 2.5625 3 2.5625 5 6 C4.52471707 9.9380586 3.55243577 12.2305359 1.25 15.4375 C-1 17 -1 17 -3.9375 17.5625 C-8.08574477 16.80057749 -9.51397551 15.36344489 -12 12 C-12.7446324 8.02862719 -12.37266878 6.55900317 -10.125 3.1875 C-6.85667758 -0.17694955 -4.65487382 -0.63890425 0 0 Z M-8.375 3.6875 C-10.14214642 5.88986616 -10.14214642 5.88986616 -10.5625 8.5 C-9.77346174 12.00683673 -7.90241012 13.04087317 -5 15 C-1.80783842 14.05097899 -0.22572971 13.26941934 1.9375 10.6875 C3.30139565 8.0228803 3.30139565 8.0228803 2.25 5.25 C1.18887078 3.09729707 1.18887078 3.09729707 0 2 C-3.60277895 1.59969123 -5.3770462 1.55737493 -8.375 3.6875 Z " fill="#000000" transform="translate(589,82)"/>
</svg>
